<mxfile host="app.diagrams.net" agent="Mozilla/5.0 (Windows NT 10.0; Win64; x64) AppleWebKit/537.36 (KHTML, like Gecko) Chrome/133.0.0.0 Safari/537.36" version="26.0.16" pages="2">
  <diagram name="Page-1" id="oOUsgQ-jfRx8T27r3VBY">
    <mxGraphModel grid="0" page="0" gridSize="10" guides="1" tooltips="1" connect="1" arrows="1" fold="1" pageScale="1" pageWidth="850" pageHeight="1100" math="0" shadow="0">
      <root>
        <mxCell id="0" />
        <mxCell id="1" parent="0" />
        <mxCell id="Z25l3-oYXNmt3fM3SDbr-10" style="edgeStyle=orthogonalEdgeStyle;rounded=0;orthogonalLoop=1;jettySize=auto;html=1;" edge="1" parent="1" source="Z25l3-oYXNmt3fM3SDbr-5" target="Z25l3-oYXNmt3fM3SDbr-6">
          <mxGeometry relative="1" as="geometry" />
        </mxCell>
        <mxCell id="Z25l3-oYXNmt3fM3SDbr-11" value="Interacts with" style="edgeLabel;html=1;align=center;verticalAlign=middle;resizable=0;points=[];" vertex="1" connectable="0" parent="Z25l3-oYXNmt3fM3SDbr-10">
          <mxGeometry x="-0.1837" y="-2" relative="1" as="geometry">
            <mxPoint as="offset" />
          </mxGeometry>
        </mxCell>
        <object placeholders="1" c4Name="Roboticist" c4Type="Person" c4Description="A researcher in robotics who uses DRIVE to collect data" label="&lt;font style=&quot;font-size: 16px&quot;&gt;&lt;b&gt;%c4Name%&lt;/b&gt;&lt;/font&gt;&lt;div&gt;[%c4Type%]&lt;/div&gt;&lt;br&gt;&lt;div&gt;&lt;font style=&quot;font-size: 11px&quot;&gt;&lt;font color=&quot;#cccccc&quot;&gt;%c4Description%&lt;/font&gt;&lt;/div&gt;" id="Z25l3-oYXNmt3fM3SDbr-5">
          <mxCell style="html=1;fontSize=11;dashed=0;whiteSpace=wrap;fillColor=#083F75;strokeColor=#06315C;fontColor=#ffffff;shape=mxgraph.c4.person2;align=center;metaEdit=1;points=[[0.5,0,0],[1,0.5,0],[1,0.75,0],[0.75,1,0],[0.5,1,0],[0.25,1,0],[0,0.75,0],[0,0.5,0]];resizable=0;" vertex="1" parent="1">
            <mxGeometry x="145" y="135" width="200" height="180" as="geometry" />
          </mxCell>
        </object>
        <mxCell id="Z25l3-oYXNmt3fM3SDbr-12" style="edgeStyle=orthogonalEdgeStyle;rounded=0;orthogonalLoop=1;jettySize=auto;html=1;exitX=1;exitY=0.25;exitDx=0;exitDy=0;exitPerimeter=0;entryX=0;entryY=0.25;entryDx=0;entryDy=0;entryPerimeter=0;" edge="1" parent="1" source="Z25l3-oYXNmt3fM3SDbr-6" target="Z25l3-oYXNmt3fM3SDbr-7">
          <mxGeometry relative="1" as="geometry">
            <mxPoint x="703" y="426" as="targetPoint" />
          </mxGeometry>
        </mxCell>
        <mxCell id="Z25l3-oYXNmt3fM3SDbr-13" value="&lt;div&gt;Sends signals from&amp;nbsp;&lt;/div&gt;&lt;div&gt;user input&lt;/div&gt;" style="edgeLabel;html=1;align=center;verticalAlign=middle;resizable=0;points=[];" vertex="1" connectable="0" parent="Z25l3-oYXNmt3fM3SDbr-12">
          <mxGeometry x="-0.1782" y="-3" relative="1" as="geometry">
            <mxPoint x="20" y="-3" as="offset" />
          </mxGeometry>
        </mxCell>
        <object placeholders="1" c4Name="User interface" c4Type="Container: Javascript" c4Description="Web interface to interact with DRIVE" label="&lt;font style=&quot;font-size: 16px&quot;&gt;&lt;b&gt;%c4Name%&lt;/b&gt;&lt;/font&gt;&lt;div&gt;[%c4Type%]&lt;/div&gt;&lt;br&gt;&lt;div&gt;&lt;font style=&quot;font-size: 11px&quot;&gt;&lt;font color=&quot;#cccccc&quot;&gt;%c4Description%&lt;/font&gt;&lt;/div&gt;" id="Z25l3-oYXNmt3fM3SDbr-6">
          <mxCell style="rounded=1;whiteSpace=wrap;html=1;labelBackgroundColor=none;fillColor=#1061B0;fontColor=#ffffff;align=center;arcSize=10;strokeColor=#0D5091;metaEdit=1;resizable=0;points=[[0.25,0,0],[0.5,0,0],[0.75,0,0],[1,0.25,0],[1,0.5,0],[1,0.75,0],[0.75,1,0],[0.5,1,0],[0.25,1,0],[0,0.75,0],[0,0.5,0],[0,0.25,0]];" vertex="1" parent="1">
            <mxGeometry x="125" y="396" width="240" height="120" as="geometry" />
          </mxCell>
        </object>
        <mxCell id="Z25l3-oYXNmt3fM3SDbr-14" style="edgeStyle=orthogonalEdgeStyle;rounded=0;orthogonalLoop=1;jettySize=auto;html=1;entryX=0.25;entryY=0;entryDx=0;entryDy=0;entryPerimeter=0;exitX=0.25;exitY=1;exitDx=0;exitDy=0;exitPerimeter=0;" edge="1" parent="1" source="Z25l3-oYXNmt3fM3SDbr-7" target="Z25l3-oYXNmt3fM3SDbr-8">
          <mxGeometry relative="1" as="geometry" />
        </mxCell>
        <mxCell id="Z25l3-oYXNmt3fM3SDbr-23" value="&lt;div&gt;Send control&lt;/div&gt;&lt;div&gt;Commands&lt;/div&gt;" style="edgeLabel;html=1;align=center;verticalAlign=middle;resizable=0;points=[];" vertex="1" connectable="0" parent="Z25l3-oYXNmt3fM3SDbr-14">
          <mxGeometry x="-0.2326" y="3" relative="1" as="geometry">
            <mxPoint x="-3" y="10" as="offset" />
          </mxGeometry>
        </mxCell>
        <object placeholders="1" c4Name="DRIVE_AGAIN" c4Type="Container: Python" c4Description="Core implementation of the DRIVE protocol" label="&lt;font style=&quot;font-size: 16px&quot;&gt;&lt;b&gt;%c4Name%&lt;/b&gt;&lt;/font&gt;&lt;div&gt;[%c4Type%]&lt;/div&gt;&lt;br&gt;&lt;div&gt;&lt;font style=&quot;font-size: 11px&quot;&gt;&lt;font color=&quot;#cccccc&quot;&gt;%c4Description%&lt;/font&gt;&lt;/div&gt;" id="Z25l3-oYXNmt3fM3SDbr-7">
          <mxCell style="rounded=1;whiteSpace=wrap;html=1;labelBackgroundColor=none;fillColor=#1061B0;fontColor=#ffffff;align=center;arcSize=10;strokeColor=#0D5091;metaEdit=1;resizable=0;points=[[0.25,0,0],[0.5,0,0],[0.75,0,0],[1,0.25,0],[1,0.5,0],[1,0.75,0],[0.75,1,0],[0.5,1,0],[0.25,1,0],[0,0.75,0],[0,0.5,0],[0,0.25,0]];" vertex="1" parent="1">
            <mxGeometry x="592" y="396" width="240" height="120" as="geometry" />
          </mxCell>
        </object>
        <mxCell id="Z25l3-oYXNmt3fM3SDbr-15" style="edgeStyle=orthogonalEdgeStyle;rounded=0;orthogonalLoop=1;jettySize=auto;html=1;exitX=1;exitY=0.25;exitDx=0;exitDy=0;exitPerimeter=0;entryX=0;entryY=0.25;entryDx=0;entryDy=0;entryPerimeter=0;" edge="1" parent="1" source="Z25l3-oYXNmt3fM3SDbr-8" target="Z25l3-oYXNmt3fM3SDbr-9">
          <mxGeometry relative="1" as="geometry">
            <mxPoint x="539" y="662" as="targetPoint" />
          </mxGeometry>
        </mxCell>
        <mxCell id="Z25l3-oYXNmt3fM3SDbr-16" value="&lt;div&gt;Send control&amp;nbsp;&lt;/div&gt;&lt;div&gt;commands&lt;/div&gt;" style="edgeLabel;html=1;align=center;verticalAlign=middle;resizable=0;points=[];" vertex="1" connectable="0" parent="Z25l3-oYXNmt3fM3SDbr-15">
          <mxGeometry x="0.302" y="1" relative="1" as="geometry">
            <mxPoint x="-18" y="-1" as="offset" />
          </mxGeometry>
        </mxCell>
        <object placeholders="1" c4Name="drive_ros" c4Type="Container: Python" c4Description="Communication bridge between ros2 and DRIVE core" label="&lt;font style=&quot;font-size: 16px&quot;&gt;&lt;b&gt;%c4Name%&lt;/b&gt;&lt;/font&gt;&lt;div&gt;[%c4Type%]&lt;/div&gt;&lt;br&gt;&lt;div&gt;&lt;font style=&quot;font-size: 11px&quot;&gt;&lt;font color=&quot;#cccccc&quot;&gt;%c4Description%&lt;/font&gt;&lt;/div&gt;" id="Z25l3-oYXNmt3fM3SDbr-8">
          <mxCell style="rounded=1;whiteSpace=wrap;html=1;labelBackgroundColor=none;fillColor=#1061B0;fontColor=#ffffff;align=center;arcSize=10;strokeColor=#0D5091;metaEdit=1;resizable=0;points=[[0.25,0,0],[0.5,0,0],[0.75,0,0],[1,0.25,0],[1,0.5,0],[1,0.75,0],[0.75,1,0],[0.5,1,0],[0.25,1,0],[0,0.75,0],[0,0.5,0],[0,0.25,0]];" vertex="1" parent="1">
            <mxGeometry x="592" y="600" width="240" height="120" as="geometry" />
          </mxCell>
        </object>
        <object placeholders="1" c4Name="Robot software" c4Type="Software System" c4Description="ros2 system that controls the robot" label="&lt;font style=&quot;font-size: 16px&quot;&gt;&lt;b&gt;%c4Name%&lt;/b&gt;&lt;/font&gt;&lt;div&gt;[%c4Type%]&lt;/div&gt;&lt;br&gt;&lt;div&gt;&lt;font style=&quot;font-size: 11px&quot;&gt;&lt;font color=&quot;#cccccc&quot;&gt;%c4Description%&lt;/font&gt;&lt;/div&gt;" id="Z25l3-oYXNmt3fM3SDbr-9">
          <mxCell style="rounded=1;whiteSpace=wrap;html=1;labelBackgroundColor=none;fillColor=#647687;fontColor=#ffffff;align=center;arcSize=10;strokeColor=#314354;metaEdit=1;resizable=0;points=[[0.25,0,0],[0.5,0,0],[0.75,0,0],[1,0.25,0],[1,0.5,0],[1,0.75,0],[0.75,1,0],[0.5,1,0],[0.25,1,0],[0,0.75,0],[0,0.5,0],[0,0.25,0]];" vertex="1" parent="1">
            <mxGeometry x="991" y="600" width="240" height="120" as="geometry" />
          </mxCell>
        </object>
        <mxCell id="Z25l3-oYXNmt3fM3SDbr-17" style="edgeStyle=orthogonalEdgeStyle;rounded=0;orthogonalLoop=1;jettySize=auto;html=1;exitX=0;exitY=0.75;exitDx=0;exitDy=0;exitPerimeter=0;entryX=1;entryY=0.75;entryDx=0;entryDy=0;entryPerimeter=0;" edge="1" parent="1" source="Z25l3-oYXNmt3fM3SDbr-9" target="Z25l3-oYXNmt3fM3SDbr-8">
          <mxGeometry relative="1" as="geometry">
            <Array as="points" />
            <mxPoint x="709" y="690" as="targetPoint" />
          </mxGeometry>
        </mxCell>
        <mxCell id="Z25l3-oYXNmt3fM3SDbr-18" value="&lt;div&gt;Send current&amp;nbsp;&lt;/div&gt;&lt;div&gt;robot position&lt;/div&gt;" style="edgeLabel;html=1;align=center;verticalAlign=middle;resizable=0;points=[];" connectable="0" vertex="1" parent="Z25l3-oYXNmt3fM3SDbr-17">
          <mxGeometry x="-0.0876" y="-1" relative="1" as="geometry">
            <mxPoint x="4" y="-3" as="offset" />
          </mxGeometry>
        </mxCell>
        <object placeholders="1" c4Name="DRIVE-AGAIN" c4Type="ContainerScopeBoundary" c4Application="Software System" label="&lt;font style=&quot;font-size: 16px&quot;&gt;&lt;b&gt;&lt;div style=&quot;text-align: left&quot;&gt;%c4Name%&lt;/div&gt;&lt;/b&gt;&lt;/font&gt;&lt;div style=&quot;text-align: left&quot;&gt;[%c4Application%]&lt;/div&gt;" id="Z25l3-oYXNmt3fM3SDbr-19">
          <mxCell style="rounded=1;fontSize=11;whiteSpace=wrap;html=1;dashed=1;arcSize=20;fillColor=none;strokeColor=#666666;fontColor=#333333;labelBackgroundColor=none;align=left;verticalAlign=bottom;labelBorderColor=none;spacingTop=0;spacing=10;dashPattern=8 4;metaEdit=1;rotatable=0;perimeter=rectanglePerimeter;noLabel=0;labelPadding=0;allowArrows=0;connectable=0;expand=0;recursiveResize=0;editable=1;pointerEvents=0;absoluteArcSize=1;points=[[0.25,0,0],[0.5,0,0],[0.75,0,0],[1,0.25,0],[1,0.5,0],[1,0.75,0],[0.75,1,0],[0.5,1,0],[0.25,1,0],[0,0.75,0],[0,0.5,0],[0,0.25,0]];" vertex="1" parent="1">
            <mxGeometry x="80" y="373" width="793" height="410" as="geometry" />
          </mxCell>
        </object>
        <mxCell id="Z25l3-oYXNmt3fM3SDbr-21" style="edgeStyle=orthogonalEdgeStyle;rounded=0;orthogonalLoop=1;jettySize=auto;html=1;exitX=0;exitY=0.75;exitDx=0;exitDy=0;exitPerimeter=0;entryX=1;entryY=0.75;entryDx=0;entryDy=0;entryPerimeter=0;" edge="1" parent="1" source="Z25l3-oYXNmt3fM3SDbr-7" target="Z25l3-oYXNmt3fM3SDbr-6">
          <mxGeometry relative="1" as="geometry" />
        </mxCell>
        <mxCell id="Z25l3-oYXNmt3fM3SDbr-22" value="&lt;div&gt;Sends visualization&lt;/div&gt;&lt;div&gt;information&lt;/div&gt;" style="edgeLabel;html=1;align=center;verticalAlign=middle;resizable=0;points=[];" vertex="1" connectable="0" parent="Z25l3-oYXNmt3fM3SDbr-21">
          <mxGeometry x="0.0714" y="2" relative="1" as="geometry">
            <mxPoint x="4" y="-4" as="offset" />
          </mxGeometry>
        </mxCell>
        <mxCell id="Z25l3-oYXNmt3fM3SDbr-26" style="edgeStyle=orthogonalEdgeStyle;rounded=0;orthogonalLoop=1;jettySize=auto;html=1;entryX=0.75;entryY=1;entryDx=0;entryDy=0;entryPerimeter=0;exitX=0.75;exitY=0;exitDx=0;exitDy=0;exitPerimeter=0;" edge="1" parent="1" source="Z25l3-oYXNmt3fM3SDbr-8" target="Z25l3-oYXNmt3fM3SDbr-7">
          <mxGeometry relative="1" as="geometry">
            <Array as="points" />
          </mxGeometry>
        </mxCell>
        <mxCell id="Z25l3-oYXNmt3fM3SDbr-27" value="&lt;div&gt;Send current&amp;nbsp;&lt;/div&gt;&lt;div&gt;robot position&lt;/div&gt;" style="edgeLabel;html=1;align=center;verticalAlign=middle;resizable=0;points=[];" vertex="1" connectable="0" parent="Z25l3-oYXNmt3fM3SDbr-26">
          <mxGeometry x="0.0316" y="-2" relative="1" as="geometry">
            <mxPoint as="offset" />
          </mxGeometry>
        </mxCell>
        <object placeholders="1" c4Name="Metadata Files" c4Type="Container" c4Technology="JSON" c4Description="Terrain, robot and roboticist information stored in JSON that describes the experiment." label="&lt;font style=&quot;font-size: 16px&quot;&gt;&lt;b&gt;%c4Name%&lt;/b&gt;&lt;/font&gt;&lt;div&gt;[%c4Type%:&amp;nbsp;%c4Technology%]&lt;/div&gt;&lt;br&gt;&lt;div&gt;&lt;font style=&quot;font-size: 11px&quot;&gt;&lt;font color=&quot;#E6E6E6&quot;&gt;%c4Description%&lt;/font&gt;&lt;/div&gt;" id="Vg_QtxZdS_Vzcnk-aTpw-2">
          <mxCell style="shape=cylinder3;size=15;whiteSpace=wrap;html=1;boundedLbl=1;rounded=0;labelBackgroundColor=none;fillColor=#647687;fontSize=12;fontColor=#ffffff;align=center;strokeColor=#314354;metaEdit=1;points=[[0.5,0,0],[1,0.25,0],[1,0.5,0],[1,0.75,0],[0.5,1,0],[0,0.75,0],[0,0.5,0],[0,0.25,0]];resizable=0;" vertex="1" parent="1">
            <mxGeometry x="-309" y="396" width="240" height="120" as="geometry" />
          </mxCell>
        </object>
        <mxCell id="Vg_QtxZdS_Vzcnk-aTpw-3" style="edgeStyle=orthogonalEdgeStyle;rounded=0;orthogonalLoop=1;jettySize=auto;html=1;exitX=0;exitY=0.5;exitDx=0;exitDy=0;exitPerimeter=0;entryX=1;entryY=0.5;entryDx=0;entryDy=0;entryPerimeter=0;" edge="1" parent="1" source="Z25l3-oYXNmt3fM3SDbr-6" target="Vg_QtxZdS_Vzcnk-aTpw-2">
          <mxGeometry relative="1" as="geometry" />
        </mxCell>
        <mxCell id="Vg_QtxZdS_Vzcnk-aTpw-4" value="Writes and reads" style="edgeLabel;html=1;align=center;verticalAlign=middle;resizable=0;points=[];" connectable="0" vertex="1" parent="Vg_QtxZdS_Vzcnk-aTpw-3">
          <mxGeometry x="0.1649" relative="1" as="geometry">
            <mxPoint as="offset" />
          </mxGeometry>
        </mxCell>
        <object placeholders="1" c4Name="Pose Files" c4Type="Container:" c4Technology="CSV" c4Description="Robot pose files stored in CSV recorded from DRIVE." label="&lt;font style=&quot;font-size: 16px&quot;&gt;&lt;b&gt;%c4Name%&lt;/b&gt;&lt;/font&gt;&lt;div&gt;[%c4Type%:&amp;nbsp;%c4Technology%]&lt;/div&gt;&lt;br&gt;&lt;div&gt;&lt;font style=&quot;font-size: 11px&quot;&gt;&lt;font color=&quot;#E6E6E6&quot;&gt;%c4Description%&lt;/font&gt;&lt;/div&gt;" id="Vg_QtxZdS_Vzcnk-aTpw-5">
          <mxCell style="shape=cylinder3;size=15;whiteSpace=wrap;html=1;boundedLbl=1;rounded=0;labelBackgroundColor=none;fillColor=#647687;fontSize=12;align=center;strokeColor=#314354;metaEdit=1;points=[[0.5,0,0],[1,0.25,0],[1,0.5,0],[1,0.75,0],[0.5,1,0],[0,0.75,0],[0,0.5,0],[0,0.25,0]];resizable=0;fontColor=#ffffff;" vertex="1" parent="1">
            <mxGeometry x="991" y="396" width="240" height="120" as="geometry" />
          </mxCell>
        </object>
        <mxCell id="Vg_QtxZdS_Vzcnk-aTpw-6" style="edgeStyle=orthogonalEdgeStyle;rounded=0;orthogonalLoop=1;jettySize=auto;html=1;exitX=1;exitY=0.5;exitDx=0;exitDy=0;exitPerimeter=0;entryX=0;entryY=0.5;entryDx=0;entryDy=0;entryPerimeter=0;" edge="1" parent="1" source="Z25l3-oYXNmt3fM3SDbr-7" target="Vg_QtxZdS_Vzcnk-aTpw-5">
          <mxGeometry relative="1" as="geometry" />
        </mxCell>
        <mxCell id="Vg_QtxZdS_Vzcnk-aTpw-7" value="Writes to" style="edgeLabel;html=1;align=center;verticalAlign=middle;resizable=0;points=[];" connectable="0" vertex="1" parent="Vg_QtxZdS_Vzcnk-aTpw-6">
          <mxGeometry x="-0.1338" relative="1" as="geometry">
            <mxPoint x="10" y="-2" as="offset" />
          </mxGeometry>
        </mxCell>
      </root>
    </mxGraphModel>
  </diagram>
  <diagram id="zyzaF7Ku5B5MbKEQ3Y3V" name="Page-2">
    <mxGraphModel grid="1" page="1" gridSize="10" guides="1" tooltips="1" connect="1" arrows="1" fold="1" pageScale="1" pageWidth="850" pageHeight="1100" math="0" shadow="0">
      <root>
        <mxCell id="0" />
        <mxCell id="1" parent="0" />
        <mxCell id="lLDmfKAlXMbQ5L101r3v-1" value="CommandSamplingStrategy" style="swimlane;fontStyle=1;align=center;verticalAlign=top;childLayout=stackLayout;horizontal=1;startSize=26;horizontalStack=0;resizeParent=1;resizeParentMax=0;resizeLast=0;collapsible=1;marginBottom=0;whiteSpace=wrap;html=1;" vertex="1" parent="1">
          <mxGeometry x="3145" y="982" width="310" height="52" as="geometry" />
        </mxCell>
        <mxCell id="lLDmfKAlXMbQ5L101r3v-2" value="+ sample_command(): Command" style="text;strokeColor=none;fillColor=none;align=left;verticalAlign=top;spacingLeft=4;spacingRight=4;overflow=hidden;rotatable=0;points=[[0,0.5],[1,0.5]];portConstraint=eastwest;whiteSpace=wrap;html=1;" vertex="1" parent="lLDmfKAlXMbQ5L101r3v-1">
          <mxGeometry y="26" width="310" height="26" as="geometry" />
        </mxCell>
        <mxCell id="lLDmfKAlXMbQ5L101r3v-3" value="RandomSampling" style="swimlane;fontStyle=1;align=center;verticalAlign=top;childLayout=stackLayout;horizontal=1;startSize=26;horizontalStack=0;resizeParent=1;resizeParentMax=0;resizeLast=0;collapsible=1;marginBottom=0;whiteSpace=wrap;html=1;" vertex="1" parent="1">
          <mxGeometry x="3145" y="1119" width="310" height="52" as="geometry" />
        </mxCell>
        <mxCell id="lLDmfKAlXMbQ5L101r3v-4" value="+ sample_command(): Command" style="text;strokeColor=none;fillColor=none;align=left;verticalAlign=top;spacingLeft=4;spacingRight=4;overflow=hidden;rotatable=0;points=[[0,0.5],[1,0.5]];portConstraint=eastwest;whiteSpace=wrap;html=1;" vertex="1" parent="lLDmfKAlXMbQ5L101r3v-3">
          <mxGeometry y="26" width="310" height="26" as="geometry" />
        </mxCell>
        <mxCell id="lLDmfKAlXMbQ5L101r3v-5" style="edgeStyle=orthogonalEdgeStyle;rounded=0;orthogonalLoop=1;jettySize=auto;html=1;entryX=0.503;entryY=0.962;entryDx=0;entryDy=0;entryPerimeter=0;" edge="1" parent="1" source="lLDmfKAlXMbQ5L101r3v-3" target="lLDmfKAlXMbQ5L101r3v-2">
          <mxGeometry relative="1" as="geometry" />
        </mxCell>
        <mxCell id="lLDmfKAlXMbQ5L101r3v-6" style="edgeStyle=orthogonalEdgeStyle;rounded=0;orthogonalLoop=1;jettySize=auto;html=1;entryX=0.5;entryY=0;entryDx=0;entryDy=0;" edge="1" parent="1" source="lLDmfKAlXMbQ5L101r3v-7" target="lLDmfKAlXMbQ5L101r3v-58">
          <mxGeometry relative="1" as="geometry" />
        </mxCell>
        <mxCell id="lLDmfKAlXMbQ5L101r3v-7" value="plot" style="swimlane;fontStyle=1;align=center;verticalAlign=top;childLayout=stackLayout;horizontal=1;startSize=26;horizontalStack=0;resizeParent=1;resizeParentMax=0;resizeLast=0;collapsible=1;marginBottom=0;whiteSpace=wrap;html=1;" vertex="1" parent="1">
          <mxGeometry x="1931" y="612" width="574" height="130" as="geometry" />
        </mxCell>
        <mxCell id="lLDmfKAlXMbQ5L101r3v-8" value="+ draw_robot_visualization_figure(ax : Axes, pose : Pose, geofence : Geofence, wheel_base : float): void" style="text;strokeColor=none;fillColor=none;align=left;verticalAlign=top;spacingLeft=4;spacingRight=4;overflow=hidden;rotatable=0;points=[[0,0.5],[1,0.5]];portConstraint=eastwest;whiteSpace=wrap;html=1;" vertex="1" parent="lLDmfKAlXMbQ5L101r3v-7">
          <mxGeometry y="26" width="574" height="26" as="geometry" />
        </mxCell>
        <mxCell id="lLDmfKAlXMbQ5L101r3v-9" value="+ draw_input_space(ax : Axes, commands : List[Command]): void" style="text;strokeColor=none;fillColor=none;align=left;verticalAlign=top;spacingLeft=4;spacingRight=4;overflow=hidden;rotatable=0;points=[[0,0.5],[1,0.5]];portConstraint=eastwest;whiteSpace=wrap;html=1;" vertex="1" parent="lLDmfKAlXMbQ5L101r3v-7">
          <mxGeometry y="52" width="574" height="26" as="geometry" />
        </mxCell>
        <mxCell id="lLDmfKAlXMbQ5L101r3v-10" value="- draw_robot(ax : Axes, pose : Pose, geofence : Geofence, wheel_base : float): void" style="text;strokeColor=none;fillColor=none;align=left;verticalAlign=top;spacingLeft=4;spacingRight=4;overflow=hidden;rotatable=0;points=[[0,0.5],[1,0.5]];portConstraint=eastwest;whiteSpace=wrap;html=1;" vertex="1" parent="lLDmfKAlXMbQ5L101r3v-7">
          <mxGeometry y="78" width="574" height="26" as="geometry" />
        </mxCell>
        <mxCell id="lLDmfKAlXMbQ5L101r3v-11" value="- draw_geofence(ax : Axes, geofence : Geofence): void" style="text;strokeColor=none;fillColor=none;align=left;verticalAlign=top;spacingLeft=4;spacingRight=4;overflow=hidden;rotatable=0;points=[[0,0.5],[1,0.5]];portConstraint=eastwest;whiteSpace=wrap;html=1;" vertex="1" parent="lLDmfKAlXMbQ5L101r3v-7">
          <mxGeometry y="104" width="574" height="26" as="geometry" />
        </mxCell>
        <mxCell id="lLDmfKAlXMbQ5L101r3v-12" style="edgeStyle=orthogonalEdgeStyle;rounded=0;orthogonalLoop=1;jettySize=auto;html=1;entryX=0;entryY=0.5;entryDx=0;entryDy=0;" edge="1" parent="1" source="lLDmfKAlXMbQ5L101r3v-13" target="lLDmfKAlXMbQ5L101r3v-62">
          <mxGeometry relative="1" as="geometry">
            <Array as="points">
              <mxPoint x="2008" y="1010" />
              <mxPoint x="2008" y="1010" />
            </Array>
          </mxGeometry>
        </mxCell>
        <mxCell id="lLDmfKAlXMbQ5L101r3v-13" value="KeyboardTeleop" style="swimlane;fontStyle=1;align=center;verticalAlign=top;childLayout=stackLayout;horizontal=1;startSize=26;horizontalStack=0;resizeParent=1;resizeParentMax=0;resizeLast=0;collapsible=1;marginBottom=0;whiteSpace=wrap;html=1;" vertex="1" parent="1">
          <mxGeometry x="1810" y="952" width="217" height="156" as="geometry" />
        </mxCell>
        <mxCell id="lLDmfKAlXMbQ5L101r3v-14" value="+ is_deadman_switch_pressed(): bool" style="text;strokeColor=none;fillColor=none;align=left;verticalAlign=top;spacingLeft=4;spacingRight=4;overflow=hidden;rotatable=0;points=[[0,0.5],[1,0.5]];portConstraint=eastwest;whiteSpace=wrap;html=1;" vertex="1" parent="lLDmfKAlXMbQ5L101r3v-13">
          <mxGeometry y="26" width="217" height="26" as="geometry" />
        </mxCell>
        <mxCell id="lLDmfKAlXMbQ5L101r3v-15" value="+ is_teleop_active(): bool" style="text;strokeColor=none;fillColor=none;align=left;verticalAlign=top;spacingLeft=4;spacingRight=4;overflow=hidden;rotatable=0;points=[[0,0.5],[1,0.5]];portConstraint=eastwest;whiteSpace=wrap;html=1;" vertex="1" parent="lLDmfKAlXMbQ5L101r3v-13">
          <mxGeometry y="52" width="217" height="26" as="geometry" />
        </mxCell>
        <mxCell id="lLDmfKAlXMbQ5L101r3v-16" value="+ get_command(): Command" style="text;strokeColor=none;fillColor=none;align=left;verticalAlign=top;spacingLeft=4;spacingRight=4;overflow=hidden;rotatable=0;points=[[0,0.5],[1,0.5]];portConstraint=eastwest;whiteSpace=wrap;html=1;" vertex="1" parent="lLDmfKAlXMbQ5L101r3v-13">
          <mxGeometry y="78" width="217" height="26" as="geometry" />
        </mxCell>
        <mxCell id="lLDmfKAlXMbQ5L101r3v-17" value="+ on_key_press(key): void" style="text;strokeColor=none;fillColor=none;align=left;verticalAlign=top;spacingLeft=4;spacingRight=4;overflow=hidden;rotatable=0;points=[[0,0.5],[1,0.5]];portConstraint=eastwest;whiteSpace=wrap;html=1;" vertex="1" parent="lLDmfKAlXMbQ5L101r3v-13">
          <mxGeometry y="104" width="217" height="26" as="geometry" />
        </mxCell>
        <mxCell id="lLDmfKAlXMbQ5L101r3v-18" value="+ on_key_release(key): void" style="text;strokeColor=none;fillColor=none;align=left;verticalAlign=top;spacingLeft=4;spacingRight=4;overflow=hidden;rotatable=0;points=[[0,0.5],[1,0.5]];portConstraint=eastwest;whiteSpace=wrap;html=1;" vertex="1" parent="lLDmfKAlXMbQ5L101r3v-13">
          <mxGeometry y="130" width="217" height="26" as="geometry" />
        </mxCell>
        <mxCell id="lLDmfKAlXMbQ5L101r3v-19" value="Step" style="swimlane;fontStyle=1;align=center;verticalAlign=top;childLayout=stackLayout;horizontal=1;startSize=26;horizontalStack=0;resizeParent=1;resizeParentMax=0;resizeLast=0;collapsible=1;marginBottom=0;whiteSpace=wrap;html=1;" vertex="1" parent="1">
          <mxGeometry x="3076" y="720" width="160" height="78" as="geometry" />
        </mxCell>
        <mxCell id="lLDmfKAlXMbQ5L101r3v-20" value="+ command: Command" style="text;strokeColor=none;fillColor=none;align=left;verticalAlign=top;spacingLeft=4;spacingRight=4;overflow=hidden;rotatable=0;points=[[0,0.5],[1,0.5]];portConstraint=eastwest;whiteSpace=wrap;html=1;" vertex="1" parent="lLDmfKAlXMbQ5L101r3v-19">
          <mxGeometry y="26" width="160" height="26" as="geometry" />
        </mxCell>
        <mxCell id="lLDmfKAlXMbQ5L101r3v-21" value="+ start_timestamp_ns: float" style="text;strokeColor=none;fillColor=none;align=left;verticalAlign=top;spacingLeft=4;spacingRight=4;overflow=hidden;rotatable=0;points=[[0,0.5],[1,0.5]];portConstraint=eastwest;whiteSpace=wrap;html=1;" vertex="1" parent="lLDmfKAlXMbQ5L101r3v-19">
          <mxGeometry y="52" width="160" height="26" as="geometry" />
        </mxCell>
        <mxCell id="lLDmfKAlXMbQ5L101r3v-22" value="Drive" style="swimlane;fontStyle=1;align=center;verticalAlign=top;childLayout=stackLayout;horizontal=1;startSize=26;horizontalStack=0;resizeParent=1;resizeParentMax=0;resizeLast=0;collapsible=1;marginBottom=0;whiteSpace=wrap;html=1;" vertex="1" parent="1">
          <mxGeometry x="2790" y="867" width="288" height="216" as="geometry" />
        </mxCell>
        <mxCell id="lLDmfKAlXMbQ5L101r3v-23" value="- current_step : Step" style="text;strokeColor=none;fillColor=none;align=left;verticalAlign=top;spacingLeft=4;spacingRight=4;overflow=hidden;rotatable=0;points=[[0,0.5],[1,0.5]];portConstraint=eastwest;whiteSpace=wrap;html=1;" vertex="1" parent="lLDmfKAlXMbQ5L101r3v-22">
          <mxGeometry y="26" width="288" height="26" as="geometry" />
        </mxCell>
        <mxCell id="lLDmfKAlXMbQ5L101r3v-24" value="- robot : Robot" style="text;strokeColor=none;fillColor=none;align=left;verticalAlign=top;spacingLeft=4;spacingRight=4;overflow=hidden;rotatable=0;points=[[0,0.5],[1,0.5]];portConstraint=eastwest;whiteSpace=wrap;html=1;" vertex="1" parent="lLDmfKAlXMbQ5L101r3v-22">
          <mxGeometry y="52" width="288" height="26" as="geometry" />
        </mxCell>
        <mxCell id="lLDmfKAlXMbQ5L101r3v-25" value="- command_sampling : CommandSamplingStrategy" style="text;strokeColor=none;fillColor=none;align=left;verticalAlign=top;spacingLeft=4;spacingRight=4;overflow=hidden;rotatable=0;points=[[0,0.5],[1,0.5]];portConstraint=eastwest;whiteSpace=wrap;html=1;" vertex="1" parent="lLDmfKAlXMbQ5L101r3v-22">
          <mxGeometry y="78" width="288" height="26" as="geometry" />
        </mxCell>
        <mxCell id="lLDmfKAlXMbQ5L101r3v-26" value="" style="line;strokeWidth=1;fillColor=none;align=left;verticalAlign=middle;spacingTop=-1;spacingLeft=3;spacingRight=3;rotatable=0;labelPosition=right;points=[];portConstraint=eastwest;strokeColor=inherit;" vertex="1" parent="lLDmfKAlXMbQ5L101r3v-22">
          <mxGeometry y="104" width="288" height="8" as="geometry" />
        </mxCell>
        <mxCell id="lLDmfKAlXMbQ5L101r3v-27" value="+ start(timestamp_ns : float): void" style="text;strokeColor=none;fillColor=none;align=left;verticalAlign=top;spacingLeft=4;spacingRight=4;overflow=hidden;rotatable=0;points=[[0,0.5],[1,0.5]];portConstraint=eastwest;whiteSpace=wrap;html=1;" vertex="1" parent="lLDmfKAlXMbQ5L101r3v-22">
          <mxGeometry y="112" width="288" height="26" as="geometry" />
        </mxCell>
        <mxCell id="lLDmfKAlXMbQ5L101r3v-28" value="+ pause(): void" style="text;strokeColor=none;fillColor=none;align=left;verticalAlign=top;spacingLeft=4;spacingRight=4;overflow=hidden;rotatable=0;points=[[0,0.5],[1,0.5]];portConstraint=eastwest;whiteSpace=wrap;html=1;" vertex="1" parent="lLDmfKAlXMbQ5L101r3v-22">
          <mxGeometry y="138" width="288" height="26" as="geometry" />
        </mxCell>
        <mxCell id="lLDmfKAlXMbQ5L101r3v-29" value="+ run(timestamp_ns : float): void" style="text;strokeColor=none;fillColor=none;align=left;verticalAlign=top;spacingLeft=4;spacingRight=4;overflow=hidden;rotatable=0;points=[[0,0.5],[1,0.5]];portConstraint=eastwest;whiteSpace=wrap;html=1;" vertex="1" parent="lLDmfKAlXMbQ5L101r3v-22">
          <mxGeometry y="164" width="288" height="26" as="geometry" />
        </mxCell>
        <mxCell id="lLDmfKAlXMbQ5L101r3v-30" value="+ save_step()" style="text;strokeColor=none;fillColor=none;align=left;verticalAlign=top;spacingLeft=4;spacingRight=4;overflow=hidden;rotatable=0;points=[[0,0.5],[1,0.5]];portConstraint=eastwest;whiteSpace=wrap;html=1;" vertex="1" parent="lLDmfKAlXMbQ5L101r3v-22">
          <mxGeometry y="190" width="288" height="26" as="geometry" />
        </mxCell>
        <mxCell id="lLDmfKAlXMbQ5L101r3v-31" style="edgeStyle=orthogonalEdgeStyle;rounded=0;orthogonalLoop=1;jettySize=auto;html=1;entryX=0;entryY=0.5;entryDx=0;entryDy=0;" edge="1" parent="1" source="lLDmfKAlXMbQ5L101r3v-33" target="lLDmfKAlXMbQ5L101r3v-24">
          <mxGeometry relative="1" as="geometry" />
        </mxCell>
        <mxCell id="lLDmfKAlXMbQ5L101r3v-32" style="edgeStyle=orthogonalEdgeStyle;rounded=0;orthogonalLoop=1;jettySize=auto;html=1;entryX=1;entryY=0.5;entryDx=0;entryDy=0;" edge="1" parent="1" source="lLDmfKAlXMbQ5L101r3v-33" target="lLDmfKAlXMbQ5L101r3v-59">
          <mxGeometry relative="1" as="geometry" />
        </mxCell>
        <mxCell id="lLDmfKAlXMbQ5L101r3v-33" value="Robot" style="swimlane;fontStyle=1;align=center;verticalAlign=top;childLayout=stackLayout;horizontal=1;startSize=26;horizontalStack=0;resizeParent=1;resizeParentMax=0;resizeLast=0;collapsible=1;marginBottom=0;whiteSpace=wrap;html=1;" vertex="1" parent="1">
          <mxGeometry x="2561" y="720" width="274" height="112" as="geometry" />
        </mxCell>
        <mxCell id="lLDmfKAlXMbQ5L101r3v-34" value="- pose : Pose" style="text;strokeColor=none;fillColor=none;align=left;verticalAlign=top;spacingLeft=4;spacingRight=4;overflow=hidden;rotatable=0;points=[[0,0.5],[1,0.5]];portConstraint=eastwest;whiteSpace=wrap;html=1;" vertex="1" parent="lLDmfKAlXMbQ5L101r3v-33">
          <mxGeometry y="26" width="274" height="26" as="geometry" />
        </mxCell>
        <mxCell id="lLDmfKAlXMbQ5L101r3v-35" value="" style="line;strokeWidth=1;fillColor=none;align=left;verticalAlign=middle;spacingTop=-1;spacingLeft=3;spacingRight=3;rotatable=0;labelPosition=right;points=[];portConstraint=eastwest;strokeColor=inherit;" vertex="1" parent="lLDmfKAlXMbQ5L101r3v-33">
          <mxGeometry y="52" width="274" height="8" as="geometry" />
        </mxCell>
        <mxCell id="lLDmfKAlXMbQ5L101r3v-36" value="+ pose_callback(pose : Pose): void" style="text;strokeColor=none;fillColor=none;align=left;verticalAlign=top;spacingLeft=4;spacingRight=4;overflow=hidden;rotatable=0;points=[[0,0.5],[1,0.5]];portConstraint=eastwest;whiteSpace=wrap;html=1;" vertex="1" parent="lLDmfKAlXMbQ5L101r3v-33">
          <mxGeometry y="60" width="274" height="26" as="geometry" />
        </mxCell>
        <mxCell id="lLDmfKAlXMbQ5L101r3v-37" value="+ send_command(command : Command): void" style="text;strokeColor=none;fillColor=none;align=left;verticalAlign=top;spacingLeft=4;spacingRight=4;overflow=hidden;rotatable=0;points=[[0,0.5],[1,0.5]];portConstraint=eastwest;whiteSpace=wrap;html=1;" vertex="1" parent="lLDmfKAlXMbQ5L101r3v-33">
          <mxGeometry y="86" width="274" height="26" as="geometry" />
        </mxCell>
        <mxCell id="lLDmfKAlXMbQ5L101r3v-38" value="Pose" style="swimlane;fontStyle=1;align=center;verticalAlign=top;childLayout=stackLayout;horizontal=1;startSize=26;horizontalStack=0;resizeParent=1;resizeParentMax=0;resizeLast=0;collapsible=1;marginBottom=0;whiteSpace=wrap;html=1;" vertex="1" parent="1">
          <mxGeometry x="3270" y="719" width="160" height="104" as="geometry" />
        </mxCell>
        <mxCell id="lLDmfKAlXMbQ5L101r3v-39" value="+ x : float" style="text;strokeColor=none;fillColor=none;align=left;verticalAlign=top;spacingLeft=4;spacingRight=4;overflow=hidden;rotatable=0;points=[[0,0.5],[1,0.5]];portConstraint=eastwest;whiteSpace=wrap;html=1;" vertex="1" parent="lLDmfKAlXMbQ5L101r3v-38">
          <mxGeometry y="26" width="160" height="26" as="geometry" />
        </mxCell>
        <mxCell id="lLDmfKAlXMbQ5L101r3v-40" value="+ y : float" style="text;strokeColor=none;fillColor=none;align=left;verticalAlign=top;spacingLeft=4;spacingRight=4;overflow=hidden;rotatable=0;points=[[0,0.5],[1,0.5]];portConstraint=eastwest;whiteSpace=wrap;html=1;" vertex="1" parent="lLDmfKAlXMbQ5L101r3v-38">
          <mxGeometry y="52" width="160" height="26" as="geometry" />
        </mxCell>
        <mxCell id="lLDmfKAlXMbQ5L101r3v-41" value="+ yaw : float" style="text;strokeColor=none;fillColor=none;align=left;verticalAlign=top;spacingLeft=4;spacingRight=4;overflow=hidden;rotatable=0;points=[[0,0.5],[1,0.5]];portConstraint=eastwest;whiteSpace=wrap;html=1;" vertex="1" parent="lLDmfKAlXMbQ5L101r3v-38">
          <mxGeometry y="78" width="160" height="26" as="geometry" />
        </mxCell>
        <mxCell id="lLDmfKAlXMbQ5L101r3v-42" value="Command" style="swimlane;fontStyle=1;align=center;verticalAlign=top;childLayout=stackLayout;horizontal=1;startSize=26;horizontalStack=0;resizeParent=1;resizeParentMax=0;resizeLast=0;collapsible=1;marginBottom=0;whiteSpace=wrap;html=1;" vertex="1" parent="1">
          <mxGeometry x="2882" y="720" width="160" height="78" as="geometry" />
        </mxCell>
        <mxCell id="lLDmfKAlXMbQ5L101r3v-43" value="+ speed_x : float" style="text;strokeColor=none;fillColor=none;align=left;verticalAlign=top;spacingLeft=4;spacingRight=4;overflow=hidden;rotatable=0;points=[[0,0.5],[1,0.5]];portConstraint=eastwest;whiteSpace=wrap;html=1;" vertex="1" parent="lLDmfKAlXMbQ5L101r3v-42">
          <mxGeometry y="26" width="160" height="26" as="geometry" />
        </mxCell>
        <mxCell id="lLDmfKAlXMbQ5L101r3v-44" value="+ angular_speed_z : float" style="text;strokeColor=none;fillColor=none;align=left;verticalAlign=top;spacingLeft=4;spacingRight=4;overflow=hidden;rotatable=0;points=[[0,0.5],[1,0.5]];portConstraint=eastwest;whiteSpace=wrap;html=1;" vertex="1" parent="lLDmfKAlXMbQ5L101r3v-42">
          <mxGeometry y="52" width="160" height="26" as="geometry" />
        </mxCell>
        <mxCell id="lLDmfKAlXMbQ5L101r3v-45" style="edgeStyle=orthogonalEdgeStyle;rounded=0;orthogonalLoop=1;jettySize=auto;html=1;entryX=0;entryY=0.5;entryDx=0;entryDy=0;" edge="1" parent="1" source="lLDmfKAlXMbQ5L101r3v-46" target="lLDmfKAlXMbQ5L101r3v-61">
          <mxGeometry relative="1" as="geometry" />
        </mxCell>
        <mxCell id="lLDmfKAlXMbQ5L101r3v-46" value="Geofence" style="swimlane;fontStyle=1;align=center;verticalAlign=top;childLayout=stackLayout;horizontal=1;startSize=26;horizontalStack=0;resizeParent=1;resizeParentMax=0;resizeLast=0;collapsible=1;marginBottom=0;whiteSpace=wrap;html=1;" vertex="1" parent="1">
          <mxGeometry x="2060" y="840" width="272" height="112" as="geometry" />
        </mxCell>
        <mxCell id="lLDmfKAlXMbQ5L101r3v-47" value="- polygon: Polygon" style="text;strokeColor=none;fillColor=none;align=left;verticalAlign=top;spacingLeft=4;spacingRight=4;overflow=hidden;rotatable=0;points=[[0,0.5],[1,0.5]];portConstraint=eastwest;whiteSpace=wrap;html=1;" vertex="1" parent="lLDmfKAlXMbQ5L101r3v-46">
          <mxGeometry y="26" width="272" height="26" as="geometry" />
        </mxCell>
        <mxCell id="lLDmfKAlXMbQ5L101r3v-48" value="- origin: (x : float, y : float)" style="text;strokeColor=none;fillColor=none;align=left;verticalAlign=top;spacingLeft=4;spacingRight=4;overflow=hidden;rotatable=0;points=[[0,0.5],[1,0.5]];portConstraint=eastwest;whiteSpace=wrap;html=1;" vertex="1" parent="lLDmfKAlXMbQ5L101r3v-46">
          <mxGeometry y="52" width="272" height="26" as="geometry" />
        </mxCell>
        <mxCell id="lLDmfKAlXMbQ5L101r3v-49" value="" style="line;strokeWidth=1;fillColor=none;align=left;verticalAlign=middle;spacingTop=-1;spacingLeft=3;spacingRight=3;rotatable=0;labelPosition=right;points=[];portConstraint=eastwest;strokeColor=inherit;" vertex="1" parent="lLDmfKAlXMbQ5L101r3v-46">
          <mxGeometry y="78" width="272" height="8" as="geometry" />
        </mxCell>
        <mxCell id="lLDmfKAlXMbQ5L101r3v-50" value="+ is_point_inside(point : (x : float, y : float)): bool" style="text;strokeColor=none;fillColor=none;align=left;verticalAlign=top;spacingLeft=4;spacingRight=4;overflow=hidden;rotatable=0;points=[[0,0.5],[1,0.5]];portConstraint=eastwest;whiteSpace=wrap;html=1;" vertex="1" parent="lLDmfKAlXMbQ5L101r3v-46">
          <mxGeometry y="86" width="272" height="26" as="geometry" />
        </mxCell>
        <mxCell id="lLDmfKAlXMbQ5L101r3v-51" style="edgeStyle=orthogonalEdgeStyle;rounded=0;orthogonalLoop=1;jettySize=auto;html=1;entryX=0;entryY=0.5;entryDx=0;entryDy=0;" edge="1" parent="1" source="lLDmfKAlXMbQ5L101r3v-52" target="lLDmfKAlXMbQ5L101r3v-63">
          <mxGeometry relative="1" as="geometry" />
        </mxCell>
        <mxCell id="lLDmfKAlXMbQ5L101r3v-52" value="Server (flask)" style="swimlane;fontStyle=1;align=center;verticalAlign=top;childLayout=stackLayout;horizontal=1;startSize=26;horizontalStack=0;resizeParent=1;resizeParentMax=0;resizeLast=0;collapsible=1;marginBottom=0;whiteSpace=wrap;html=1;" vertex="1" parent="1">
          <mxGeometry x="2045.5" y="1129" width="301" height="156" as="geometry" />
        </mxCell>
        <mxCell id="lLDmfKAlXMbQ5L101r3v-53" value="+ start_drive(): void" style="text;strokeColor=none;fillColor=none;align=left;verticalAlign=top;spacingLeft=4;spacingRight=4;overflow=hidden;rotatable=0;points=[[0,0.5],[1,0.5]];portConstraint=eastwest;whiteSpace=wrap;html=1;" vertex="1" parent="lLDmfKAlXMbQ5L101r3v-52">
          <mxGeometry y="26" width="301" height="26" as="geometry" />
        </mxCell>
        <mxCell id="lLDmfKAlXMbQ5L101r3v-54" value="+ start_geofencing(): void" style="text;strokeColor=none;fillColor=none;align=left;verticalAlign=top;spacingLeft=4;spacingRight=4;overflow=hidden;rotatable=0;points=[[0,0.5],[1,0.5]];portConstraint=eastwest;whiteSpace=wrap;html=1;" vertex="1" parent="lLDmfKAlXMbQ5L101r3v-52">
          <mxGeometry y="52" width="301" height="26" as="geometry" />
        </mxCell>
        <mxCell id="lLDmfKAlXMbQ5L101r3v-55" value="+ stop_geofencing(): void" style="text;strokeColor=none;fillColor=none;align=left;verticalAlign=top;spacingLeft=4;spacingRight=4;overflow=hidden;rotatable=0;points=[[0,0.5],[1,0.5]];portConstraint=eastwest;whiteSpace=wrap;html=1;" vertex="1" parent="lLDmfKAlXMbQ5L101r3v-52">
          <mxGeometry y="78" width="301" height="26" as="geometry" />
        </mxCell>
        <mxCell id="lLDmfKAlXMbQ5L101r3v-56" value="+ update_robot_vizualisation(image_b64 : string): void" style="text;strokeColor=none;fillColor=none;align=left;verticalAlign=top;spacingLeft=4;spacingRight=4;overflow=hidden;rotatable=0;points=[[0,0.5],[1,0.5]];portConstraint=eastwest;whiteSpace=wrap;html=1;" vertex="1" parent="lLDmfKAlXMbQ5L101r3v-52">
          <mxGeometry y="104" width="301" height="26" as="geometry" />
        </mxCell>
        <mxCell id="lLDmfKAlXMbQ5L101r3v-57" value="+ update_input_space(image_b64 : string): void" style="text;strokeColor=none;fillColor=none;align=left;verticalAlign=top;spacingLeft=4;spacingRight=4;overflow=hidden;rotatable=0;points=[[0,0.5],[1,0.5]];portConstraint=eastwest;whiteSpace=wrap;html=1;" vertex="1" parent="lLDmfKAlXMbQ5L101r3v-52">
          <mxGeometry y="130" width="301" height="26" as="geometry" />
        </mxCell>
        <mxCell id="lLDmfKAlXMbQ5L101r3v-58" value="Sim" style="swimlane;fontStyle=1;align=center;verticalAlign=top;childLayout=stackLayout;horizontal=1;startSize=26;horizontalStack=0;resizeParent=1;resizeParentMax=0;resizeLast=0;collapsible=1;marginBottom=0;whiteSpace=wrap;html=1;" vertex="1" parent="1">
          <mxGeometry x="2360" y="893" width="241" height="190" as="geometry" />
        </mxCell>
        <mxCell id="lLDmfKAlXMbQ5L101r3v-59" value="- robot : Robot" style="text;strokeColor=none;fillColor=none;align=left;verticalAlign=top;spacingLeft=4;spacingRight=4;overflow=hidden;rotatable=0;points=[[0,0.5],[1,0.5]];portConstraint=eastwest;whiteSpace=wrap;html=1;" vertex="1" parent="lLDmfKAlXMbQ5L101r3v-58">
          <mxGeometry y="26" width="241" height="26" as="geometry" />
        </mxCell>
        <mxCell id="lLDmfKAlXMbQ5L101r3v-60" value="- drive : Drive" style="text;strokeColor=none;fillColor=none;align=left;verticalAlign=top;spacingLeft=4;spacingRight=4;overflow=hidden;rotatable=0;points=[[0,0.5],[1,0.5]];portConstraint=eastwest;whiteSpace=wrap;html=1;" vertex="1" parent="lLDmfKAlXMbQ5L101r3v-58">
          <mxGeometry y="52" width="241" height="26" as="geometry" />
        </mxCell>
        <mxCell id="lLDmfKAlXMbQ5L101r3v-61" value="- geofence : Geofence" style="text;strokeColor=none;fillColor=none;align=left;verticalAlign=top;spacingLeft=4;spacingRight=4;overflow=hidden;rotatable=0;points=[[0,0.5],[1,0.5]];portConstraint=eastwest;whiteSpace=wrap;html=1;" vertex="1" parent="lLDmfKAlXMbQ5L101r3v-58">
          <mxGeometry y="78" width="241" height="26" as="geometry" />
        </mxCell>
        <mxCell id="lLDmfKAlXMbQ5L101r3v-62" value="- keyboard_teleop : KeyboardTeleop" style="text;strokeColor=none;fillColor=none;align=left;verticalAlign=top;spacingLeft=4;spacingRight=4;overflow=hidden;rotatable=0;points=[[0,0.5],[1,0.5]];portConstraint=eastwest;whiteSpace=wrap;html=1;" vertex="1" parent="lLDmfKAlXMbQ5L101r3v-58">
          <mxGeometry y="104" width="241" height="26" as="geometry" />
        </mxCell>
        <mxCell id="lLDmfKAlXMbQ5L101r3v-63" value="- server : Server" style="text;strokeColor=none;fillColor=none;align=left;verticalAlign=top;spacingLeft=4;spacingRight=4;overflow=hidden;rotatable=0;points=[[0,0.5],[1,0.5]];portConstraint=eastwest;whiteSpace=wrap;html=1;" vertex="1" parent="lLDmfKAlXMbQ5L101r3v-58">
          <mxGeometry y="130" width="241" height="26" as="geometry" />
        </mxCell>
        <mxCell id="lLDmfKAlXMbQ5L101r3v-64" value="" style="line;strokeWidth=1;fillColor=none;align=left;verticalAlign=middle;spacingTop=-1;spacingLeft=3;spacingRight=3;rotatable=0;labelPosition=right;points=[];portConstraint=eastwest;strokeColor=inherit;" vertex="1" parent="lLDmfKAlXMbQ5L101r3v-58">
          <mxGeometry y="156" width="241" height="8" as="geometry" />
        </mxCell>
        <mxCell id="lLDmfKAlXMbQ5L101r3v-65" value="+ run(): void" style="text;strokeColor=none;fillColor=none;align=left;verticalAlign=top;spacingLeft=4;spacingRight=4;overflow=hidden;rotatable=0;points=[[0,0.5],[1,0.5]];portConstraint=eastwest;whiteSpace=wrap;html=1;" vertex="1" parent="lLDmfKAlXMbQ5L101r3v-58">
          <mxGeometry y="164" width="241" height="26" as="geometry" />
        </mxCell>
        <mxCell id="lLDmfKAlXMbQ5L101r3v-66" style="edgeStyle=orthogonalEdgeStyle;rounded=0;orthogonalLoop=1;jettySize=auto;html=1;" edge="1" parent="1" source="lLDmfKAlXMbQ5L101r3v-27" target="lLDmfKAlXMbQ5L101r3v-60">
          <mxGeometry relative="1" as="geometry">
            <Array as="points">
              <mxPoint x="2790" y="975" />
              <mxPoint x="2696" y="975" />
              <mxPoint x="2696" y="958" />
            </Array>
          </mxGeometry>
        </mxCell>
        <mxCell id="lLDmfKAlXMbQ5L101r3v-67" style="edgeStyle=orthogonalEdgeStyle;rounded=0;orthogonalLoop=1;jettySize=auto;html=1;entryX=1;entryY=0.5;entryDx=0;entryDy=0;" edge="1" parent="1" source="lLDmfKAlXMbQ5L101r3v-2" target="lLDmfKAlXMbQ5L101r3v-25">
          <mxGeometry relative="1" as="geometry" />
        </mxCell>
      </root>
    </mxGraphModel>
  </diagram>
</mxfile>
